<svg xmlns="http://www.w3.org/2000/svg" xmlns:xlink="http://www.w3.org/1999/xlink" version="1.1" x="0px" y="0px" viewBox="0 0 1024 1280" style="enable-background:new 0 0 1024 1024;" xml:space="preserve"><g><g><g>
  <style type="text/css">
	.st1{fill: #E7E7EB;}  <!-- change colour here-->
  </style>
  <path class="st1" d="M800.8,512c0,8.2-0.3,16.3-1,24.5c-0.3,3.9-0.7,7.8-1.1,11.7c-0.1,0.9-0.2,1.8-0.3,2.7     c-0.4,3.6,0.1-0.8,0.2-1.2c-0.5,2.2-0.7,4.5-1,6.8c-2.5,15.6-6.3,31-11.2,46c-2.3,7.2-5,14.3-7.8,21.3c-1.3,3.3,0.4-0.7,0.5-1.1     c-0.2,0.8-0.7,1.7-1.1,2.4c-0.8,1.8-1.6,3.6-2.4,5.5c-1.7,3.6-3.4,7.2-5.2,10.7c-6.9,13.5-14.7,26.5-23.5,38.9     c-2.2,3-4.4,6-6.6,9c-1.6,2.1,2.4-3,0.7-0.9c-0.7,0.8-1.4,1.7-2,2.6c-1.2,1.5-2.5,3.1-3.7,4.6c-4.9,5.9-10,11.6-15.3,17.1     c-5.2,5.3-10.5,10.5-16,15.4c-2.8,2.5-5.6,4.9-8.4,7.3c-1.5,1.3-3,2.5-4.6,3.7c-0.7,0.5-1.4,1.1-2.1,1.6     c-3.1,2.5,3.3-2.5-0.1,0.1c-12.1,9.1-24.7,17.4-38,24.7c-6.8,3.7-13.7,7.2-20.7,10.4c-1.6,0.7-3.2,1.5-4.9,2.2     c-0.7,0.3-1.7,0.9-2.4,1.1c4.2-1,2.4-1,1.1-0.5c-3.7,1.5-7.4,3-11.2,4.3c-14.8,5.4-30,9.6-45.4,12.7c-3.6,0.7-7.2,1.4-10.7,1.9     c-2,0.3-4.1,0.6-6.1,0.9c-2.8,0.4,4-0.5,1.2-0.2c-1.1,0.1-2.3,0.3-3.4,0.4c-8.3,1-16.6,1.6-25,1.9c-16.1,0.6-32.2-0.1-48.2-2     c-0.9-0.1-1.8-0.2-2.7-0.3c-2.8-0.3,4,0.6,1.2,0.2c-2-0.3-4.1-0.6-6.1-0.9c-4-0.7-8.1-1.4-12.1-2.2c-7.5-1.5-15-3.3-22.4-5.4     c-7.5-2.1-15-4.5-22.3-7.2c-3.5-1.3-7.1-2.7-10.6-4.1c-1.3-0.5-3-0.5,1.1,0.5c-0.8-0.2-1.7-0.7-2.4-1.1c-2-0.9-4-1.8-6.1-2.7     c-14-6.5-27.5-14-40.3-22.4c-2.9-1.9-5.8-3.9-8.7-5.9c-3-2.1-7-4.3-9.5-7c3.5,3.8,0.2,0.2-1.1-0.9c-1.5-1.2-3.1-2.5-4.6-3.7     c-3-2.5-6-5.1-8.9-7.7c-11.2-10.1-21.7-21-31.3-32.6c-1.1-1.3-2.2-2.7-3.3-4.1c-0.7-0.9-1.3-1.7-2-2.6c-1.7-2,2.3,3.1,0.7,0.9     c-2.3-3.2-4.7-6.3-7-9.5c-4.4-6.3-8.6-12.7-12.6-19.3c-3.8-6.4-7.5-13-10.8-19.7c-1.7-3.4-3.3-6.7-4.9-10.1     c-0.8-1.8-1.6-3.6-2.4-5.5c-0.3-0.7-0.9-1.7-1.1-2.4c0.3,0.8,0.7,1.6,1,2.3c-0.3-0.8-0.7-1.6-1-2.5c-5.8-14.3-10.5-29-14.1-44.1     c-1.8-7.7-3.4-15.5-4.6-23.4c-0.3-1.8-0.5-3.6-0.8-5.4c1.1,5.7,0,0-0.2-1.5c-0.5-4.1-0.9-8.3-1.2-12.4c-1.2-16.3-1.2-32.7,0.1-49     c0.3-3.7,0.7-7.4,1.1-11c0.1-0.9,0.2-1.8,0.3-2.7c0.5-4.6-0.5,3.6-0.1,0.5c0.3-2,0.6-4.1,0.9-6.1c1.3-8.1,2.9-16.1,4.9-24     c3.7-15.1,8.9-29.4,14.4-43.9c0.9-2.5-1.6,3.6-0.5,1.1c0.4-0.8,0.7-1.6,1.1-2.4c0.8-1.8,1.6-3.6,2.5-5.4     c1.7-3.6,3.4-7.2,5.2-10.7c3.4-6.7,7-13.2,10.9-19.6c4-6.6,8.2-13,12.6-19.2c2-2.8,4-6.7,6.6-9c-0.3,0.3-2.9,3.7-0.7,0.9     c0.5-0.7,1.1-1.4,1.6-2.1c1.4-1.7,2.8-3.4,4.2-5.1c9.8-11.7,20.5-22.7,31.9-32.9c2.6-2.3,5.3-4.6,8-6.8c1.3-1.1,2.7-2.2,4.1-3.3     c0.7-0.5,1.4-1.1,2.1-1.6c3.6-2.9-3.6,2.7,0.1-0.1c6.1-4.6,12.4-9.1,18.8-13.2c12.7-8.3,26.1-15.6,39.9-21.9     c1.6-0.7,3.2-1.5,4.9-2.2c0.4-0.2,4.5-1.7,1.3-0.6c-2.8,1,0,0,0.7-0.3c3.7-1.5,7.4-2.9,11.2-4.3c7.4-2.7,14.8-5.1,22.4-7.2     c7.4-2.1,14.9-3.8,22.4-5.3c3.8-0.8,7.6-1.4,11.4-2c2-0.3,4.1-0.5,6.1-0.9c-0.5,0.1-4.8,0.6-1.2,0.2c1.4-0.2,2.7-0.3,4.1-0.5     c16-1.8,32.1-2.3,48.2-1.7c8.1,0.3,16.2,1,24.2,2c0.9,0.1,1.8,0.3,2.7,0.3c-0.5,0-4.8-0.7-1.2-0.2c1.8,0.3,3.6,0.5,5.4,0.8     c4,0.7,8.1,1.4,12.1,2.2c15.4,3.1,30.6,7.5,45.3,12.9c3.3,1.2,6.6,2.6,9.9,3.9c3.3,1.3-0.7-0.4-1.1-0.5c1,0.2,2.1,0.9,3,1.3     c1.8,0.8,3.6,1.6,5.4,2.5c7,3.2,13.9,6.7,20.6,10.5c6.7,3.7,13.3,7.7,19.7,12c3.1,2,6.2,4.2,9.2,6.3c1.4,1,2.8,2,4.3,3.1     c0.7,0.5,1.4,1,2.1,1.6c0.5,0.4,4.1,3.3,1.6,1.2c-2.4-2,2.1,1.7,2.6,2.1c1.5,1.2,3.1,2.5,4.6,3.7c3,2.5,6,5.1,8.9,7.7     c5.5,5,10.8,10.2,16,15.5c5.3,5.5,10.4,11.2,15.2,17.1c1.3,1.5,2.5,3,3.7,4.6c0.4,0.5,1.4,1.5,1.6,2.1c-0.1-0.3-2.9-3.8-0.7-0.9     c2.4,3.2,4.7,6.3,7,9.5c8.7,12.4,16.5,25.5,23.3,39c1.7,3.4,3.3,6.7,4.9,10.2c0.7,1.6,1.5,3.2,2.2,4.9c0.3,0.7,0.9,1.7,1.1,2.4     c-1.2-4.9-0.5-1.2,0,0.1c2.9,7.2,5.6,14.6,7.9,22c4.7,14.8,8.3,30.1,10.8,45.4c0.2,1.6,1,3.9,0.8,5.4c0.6-4.1-0.3-2.6-0.1-0.5     c0.1,0.9,0.2,1.8,0.3,2.7c0.4,3.9,0.8,7.8,1.1,11.7C800.6,496.1,800.8,504.1,800.8,512c0,10.5,9.2,20.5,20,20     c10.8-0.5,20-8.8,20-20c-0.2-67.4-20.9-134.6-60.2-189.5c-39.2-54.8-93.5-96.5-156.8-119.7c-64-23.5-136-25.8-201.5-7.2     c-63.3,17.9-121.3,55.4-163.2,106.3c-43.5,52.9-69.7,117.4-75.1,185.7c-5.3,67.4,11.2,136.4,46.2,194.3     c33.9,56,84.9,102.2,144.7,129.2c64,28.9,135.3,37,204.2,23c64.3-13.1,124.5-46.7,169.9-94.1c45.9-47.9,77.4-109.8,87.4-175.4     c2.7-17.4,4.2-34.8,4.3-52.4c0-10.5-9.2-20.5-20-20C810,492.5,800.9,500.8,800.8,512z"/></g></g><g><g>
  <path class="st1" d="M532,203.2c0-35.5,0-70.9,0-106.4c0-5.1,0-10.2,0-15.2c0-10.5-9.2-20.5-20-20c-10.8,0.5-20,8.8-20,20     c0,35.5,0,70.9,0,106.4c0,5.1,0,10.2,0,15.2c0,10.5,9.2,20.5,20,20C522.8,222.7,532,214.4,532,203.2L532,203.2z"/></g></g><g><g>
  <path class="st1" d="M532,942.5c0-35.5,0-70.9,0-106.4c0-5.1,0-10.2,0-15.2c0-10.5-9.2-20.5-20-20c-10.8,0.5-20,8.8-20,20     c0,35.5,0,70.9,0,106.4c0,5.1,0,10.2,0,15.2c0,10.5,9.2,20.5,20,20C522.8,962,532,953.7,532,942.5L532,942.5z"/></g></g><g><g>
  <path class="st1" d="M203.2,492c-35.5,0-70.9,0-106.4,0c-5.1,0-10.2,0-15.2,0c-10.5,0-20.5,9.2-20,20c0.5,10.8,8.8,20,20,20     c35.5,0,70.9,0,106.4,0c5.1,0,10.2,0,15.2,0c10.5,0,20.5-9.2,20-20C222.7,501.2,214.4,492,203.2,492L203.2,492z"/></g></g><g><g>
  <path class="st1" d="M942.5,492c-35.5,0-70.9,0-106.4,0c-5.1,0-10.2,0-15.2,0c-10.5,0-20.5,9.2-20,20c0.5,10.8,8.8,20,20,20     c35.5,0,70.9,0,106.4,0c5.1,0,10.2,0,15.2,0c10.5,0,20.5-9.2,20-20C962,501.2,953.7,492,942.5,492L942.5,492z"/></g></g><g><g>
  <path class="st1" d="M584.8,512c0,2.3-0.1,4.7-0.3,7c-0.1,1.2-0.2,2.3-0.3,3.4c-0.2,3,0.9-5.1,0.1-0.6     c-0.8,4.4-1.8,8.8-3.2,13.1c-0.3,0.8-1.4,5.9-2.3,6.3c0.3-0.8,0.7-1.6,1-2.3c-0.4,0.8-0.7,1.6-1.1,2.4c-0.4,0.8-0.8,1.6-1.2,2.4     c-2.1,4.1-4.6,8-7.1,11.8c-1.5,2.2-0.2,2.3,0.4-0.4c-0.1,0.4-1.3,1.6-1.6,2c-1.4,1.7-2.8,3.3-4.4,4.9c-1.5,1.6-3.1,3.1-4.7,4.6     c-0.6,0.6-1.3,1.2-2,1.7c-0.7,0.6-4.8,3-2.1,1.7c2.8-1.3-0.6,0.4-1.1,0.8c-0.7,0.5-1.4,1-2.2,1.5c-1.8,1.2-3.7,2.3-5.6,3.4     c-1.9,1.1-3.9,2.1-5.9,3c-0.5,0.2-4.4,1.5-1.2,0.6c3.2-0.9-2,0.7-2.6,0.9c-3.8,1.3-7.7,2.4-11.7,3.3c-1.3,0.3-2.7,0.5-4,0.8     c-2.8,0.5,0.5,0.6,1.2-0.1c-1,1-7,0.6-8.3,0.6c-4.2,0.1-8.4-0.2-12.6-0.5c-4.8-0.4,4.6,0.9-0.1,0c-0.9-0.2-1.8-0.3-2.7-0.5     c-2.7-0.5-5.3-1.2-7.9-1.9c-1.9-0.6-3.8-1.2-5.7-1.9c-0.6-0.2-2.9-0.7-3.1-1.2c0.6,1.3,3.7,1.7,0.5,0.2     c-4.2-2.1-8.2-4.2-12.1-6.7c-0.7-0.5-1.5-1-2.2-1.5c-0.4-0.3-0.7-0.5-1.1-0.8c-1.7-1.3-1.4-1,0.9,0.8c-1.4-0.3-3.4-2.8-4.5-3.8     c-3.4-3.1-6.6-6.4-9.5-9.9c-0.2-0.2-1.6-1.6-1.6-2c0.5,0.7,1,1.3,1.5,2c-0.5-0.7-1-1.4-1.5-2.1c-1.1-1.6-2.2-3.3-3.2-4.9     c-1-1.7-2-3.4-2.9-5.2c-0.6-1.2-1.2-2.4-1.8-3.5c-0.2-0.4-0.4-0.8-0.6-1.2c-0.9-2-0.7-1.6,0.5,1.1c-0.8-0.4-2-5.4-2.3-6.3     c-0.7-2.1-1.3-4.3-1.8-6.5c-0.5-2-0.9-4-1.2-6c-0.3-1.6,0.1-4.2,0,0.6c0-1.3-0.3-2.8-0.4-4.1c-0.3-4.7-0.3-9.3,0-14     c0.1-0.9,0.2-1.8,0.2-2.8c0.4-4.6-0.6,3.5-0.1,0.5c0.5-2.5,0.9-4.9,1.5-7.3c0.5-2.2,1.1-4.3,1.8-6.5c0.4-1.2,1.3-5.8,2.3-6.3     c-0.6,0.3-1.7,3.7-0.5,1.1c0.6-1.2,1.1-2.4,1.7-3.6c1-2,2.1-3.9,3.2-5.8c1.1-1.9,2.3-3.7,3.6-5.5c0.4-0.6,2-4,0.8-1.1     c-1.2,2.7,0.4-0.4,0.9-1.1c2.8-3.4,5.8-6.5,9-9.4c1.1-1,3.5-3.9,5-4.2c-2.7,0.6-2.6,1.9-0.4,0.4c0.9-0.6,1.8-1.3,2.7-1.9     c3.7-2.4,7.5-4.6,11.5-6.4c0.4-0.2,0.8-0.4,1.2-0.6c2-0.9,1.6-0.7-1.1,0.5c0.1-0.2,2.1-0.8,2.5-1c2.1-0.8,4.2-1.5,6.4-2.1     c2.2-0.6,4.3-1.2,6.5-1.6c0.9-0.2,1.8-0.4,2.7-0.5c0.9-0.2,1.8-0.3,2.7-0.4c-2.8,0.4-3.5,0.5-1.9,0.3c4.4-0.4,8.8-0.7,13.2-0.5     c2.3,0.1,4.6,0.3,6.9,0.5c4,0.3-1.2-0.2-1.2-0.2c0.5-0.4,4,0.7,4.7,0.8c5.1,1,9.9,2.6,14.8,4.3c2.6,0.9,0.1-0.7-1.1-0.5     c0.9-0.2,3.3,1.5,4.2,2c2.2,1.1,4.3,2.2,6.4,3.5c2.3,1.4,4.4,2.9,6.6,4.3c1.9,1.3,1-0.3-0.9-0.8c1,0.2,2.2,1.8,3,2.5     c3.8,3.3,7.4,6.8,10.6,10.7c0.5,0.6,1.9,1.8,2.1,2.5c-1.7-2.2-2-2.6-1.2-1.4c0.4,0.5,0.8,1.1,1.1,1.6c1.5,2.2,2.9,4.4,4.2,6.6     c1.1,1.9,2.1,3.8,3.1,5.8c0.3,0.7,1.8,2.9,1.7,3.6c-1.1-2.5-1.3-3.1-0.7-1.7c0.2,0.6,0.5,1.2,0.7,1.9c1.7,4.6,3,9.4,4,14.2     c0.1,0.5,1,3.6,0.7,4c-0.1-0.9-0.2-1.7-0.3-2.6c0.1,0.9,0.2,1.8,0.3,2.7C584.7,506.4,584.8,509.2,584.8,512     c0.1,10.5,9.1,20.5,20,20c10.8-0.5,20.1-8.8,20-20c-0.4-47.9-30.7-89.9-75.4-106.4c-42.9-15.8-95-1.7-123.8,33.9     c-15.4,19-24.4,41.1-26.2,65.5c-1.7,22.3,4.1,45.5,15.6,64.7c24.7,41.3,73.2,61.9,120.2,52.7c51.9-10.1,89.2-58.2,89.6-110.4     c0.1-10.5-9.3-20.5-20-20C593.9,492.5,584.9,500.8,584.8,512z"/></g></g></g>
</svg>